<?xml version="1.0" encoding="UTF-8"?>
<svg version="1.1" xmlns="http://www.w3.org/2000/svg" width="841" height="744">
<path d="M0 0 C277.53 0 555.06 0 841 0 C841 245.52 841 491.04 841 744 C563.47 744 285.94 744 0 744 C0 498.48 0 252.96 0 0 Z " fill="#0C141B" transform="translate(0,0)"/>
<path d="M0 0 C2.50036038 2.98119892 4.70618895 6.04856491 6.8125 9.3125 C12.40010166 17.71480374 18.44662773 23.61836015 27 29 C27.70302246 29.46083984 28.40604492 29.92167969 29.13037109 30.39648438 C35.48708383 34.42515426 41.84469791 36.97991685 49 39.25 C50.01578125 39.58773437 51.0315625 39.92546875 52.078125 40.2734375 C57.5399204 42.05202216 62.94404686 43.53281939 68.59667969 44.55737305 C70.15669839 44.84468653 71.71078762 45.16723057 73.25488281 45.53051758 C80.59194656 47.22291511 87.963712 47.5013981 95.45584106 47.83288574 C149.25467564 50.28612691 149.25467564 50.28612691 167 66 C167.72445312 66.61617188 168.44890625 67.23234375 169.1953125 67.8671875 C175.32955846 73.48830262 180.26558684 80.79676051 182.90625 88.71875 C184.33008292 91.68845867 185.60834059 92.10303439 188.625 93.3125 C194.26424599 95.91209461 198.03184677 99.26381711 202 104 C202.45632813 104.54398437 202.91265625 105.08796875 203.3828125 105.6484375 C207.0573058 110.91606776 206.36508943 116.82390382 206 123 C204 123 204 123 201.625 120.6875 C200.75875 119.800625 199.8925 118.91375 199 118 C189.8178193 110.25253503 176.27014398 112.10118806 165 113 C159.95419498 113.8272154 155.51919728 115.62621951 151 118 C149.515 118.77923828 149.515 118.77923828 148 119.57421875 C137.48677226 125.70217351 131.19631676 133.6512567 127 145 C126.75378906 145.65484375 126.50757813 146.3096875 126.25390625 146.984375 C122.1694525 160.16730159 125.35897779 174.48874912 131.4375 186.4375 C138.32196591 199.1431751 148.79141702 208.11588792 160.20898438 216.65722656 C201.07364536 247.29458145 201.07364536 247.29458145 207 271 C206.34 271.33 205.68 271.66 205 272 C205 271.01 205 270.02 205 269 C203.02 270.65 201.04 272.3 199 274 C198.54625 273.030625 198.0925 272.06125 197.625 271.0625 C196.34213779 267.92920418 196.34213779 267.92920418 194 267 C193.03515625 265.29296875 193.03515625 265.29296875 192.0625 263.1875 C190.62307504 260.17387246 189.03954062 257.65140281 187 255 C187 254.34 187 253.68 187 253 C186.34 253 185.68 253 185 253 C184.38125 252.21625 183.7625 251.4325 183.125 250.625 C181.11147826 248.13770844 179.91357141 247.14461734 177 246 C177 245.01 177 244.02 177 243 C176.01 243.33 175.02 243.66 174 244 C173.7525 243.38125 173.505 242.7625 173.25 242.125 C171.73970696 239.55750184 170.63908792 239.28184271 168 238 C167.319375 237.2575 166.63875 236.515 165.9375 235.75 C163.49771836 233.17467494 160.82982984 231.74824773 157.6875 230.125 C153.1003507 227.7389425 149.55836141 225.04534704 145.78125 221.546875 C142.45276128 218.65634532 139.40618983 217 135 217 C134.9278125 216.45859375 134.855625 215.9171875 134.78125 215.359375 C133.68606213 212.05190764 131.70990003 209.93734757 129.5 207.25 C125.55253325 202.29866088 122.16050493 197.21036952 119.0625 191.6875 C118.69769531 191.04264648 118.33289063 190.39779297 117.95703125 189.73339844 C112.63028975 180.01905177 110.81596333 171.22811294 110.75 160.1875 C110.729375 159.33607422 110.70875 158.48464844 110.6875 157.60742188 C110.60828151 144.60568749 117.00953844 132.98807696 125 123 C125.66 123 126.32 123 127 123 C127.25910156 122.41347656 127.51820313 121.82695312 127.78515625 121.22265625 C134.97735341 108.06394184 156.30782015 99.26668494 170 95 C172.66218396 94.23937601 175.2919735 93.58408415 178 93 C170.61277345 84.38156903 161.41622843 77.88804817 150 76 C127.85287119 74.34237501 110.19862611 78.1690362 91 89 C90.03835938 89.53238281 89.07671875 90.06476563 88.0859375 90.61328125 C61.12435624 106.6391179 42.76371448 132.9240452 35 163 C32.66311171 172.2619871 31.4479299 181.01030704 31.5 190.5625 C31.50499512 191.7997583 31.50999023 193.0370166 31.51513672 194.31176758 C31.86255556 213.29161813 35.19412272 232.04316749 41.9609375 249.7890625 C43 253 43 253 42 256 C38.39008233 249.38321356 35.94695367 242.48723338 33.59057617 235.34814453 C32.94464397 233.39658413 32.28454349 231.45023756 31.62304688 229.50390625 C28.80367679 221.09617274 26.67943874 212.71160273 25 204 C24.81332764 203.17564453 24.62665527 202.35128906 24.43432617 201.50195312 C19.51548053 173.16674786 25.81967873 138.04595363 41.75390625 114.16015625 C48.76187915 104.30024307 48.76187915 104.30024307 52 101 C52.66 101 53.32 101 54 101 C54.20625 100.443125 54.4125 99.88625 54.625 99.3125 C56.54084039 96.09040481 59.08657415 94.35495414 62 92 C60.25976562 91.94392578 60.25976562 91.94392578 58.484375 91.88671875 C39.95041849 91.16668309 25.9188257 87.69297471 12.546875 73.91796875 C11 72 11 72 11 70 C11.680625 70.27714844 12.36125 70.55429688 13.0625 70.83984375 C16.35525731 72.14030774 19.67005462 73.36041843 23 74.5625 C24.19625 74.99691406 25.3925 75.43132812 26.625 75.87890625 C46.59083217 82.51107504 69.46455637 76.60186666 89 71 C88.45287354 70.96036133 87.90574707 70.92072266 87.34204102 70.87988281 C60.46416592 68.84797495 35.84345718 63.5088289 16 44 C15.02353516 43.04287109 15.02353516 43.04287109 14.02734375 42.06640625 C3.70260759 31.15168517 -0.5030115 16.96899863 -0.10546875 2.203125 C-0.07066406 1.47609375 -0.03585937 0.7490625 0 0 Z " fill="#4CC68C" transform="translate(307,145)"/>
<path d="M0 0 C0.99 0 1.98 0 3 0 C3.07032468 9.5119053 3.12322097 19.02371757 3.15543652 28.53582859 C3.17091874 32.95537735 3.19182625 37.37474493 3.22631836 41.79418945 C3.44942284 71.17994307 3.18138011 98.02023901 -10 125 C-10.66 125 -11.32 125 -12 125 C-12.103125 126.0725 -12.20625 127.145 -12.3125 128.25 C-12.98407958 131.91316136 -13.47792481 133.38092192 -16 136 C-17.485 136.99 -17.485 136.99 -19 138 C-20.00916033 139.76591887 -20.00916033 139.76591887 -21 142 C-24.43899658 148.62599772 -24.43899658 148.62599772 -28 151 C-28.495 151.825 -28.99 152.65 -29.5 153.5 C-31 156 -31 156 -34 158 C-34.33 158.99 -34.66 159.98 -35 161 C-38.39448225 164.68543788 -42.12327094 167.84452286 -46 171 C-47.10812666 166.84646229 -46.78852941 163.71381778 -46.0625 159.5 C-44.94731423 152.31787753 -44.84264554 145.28330759 -44.98657227 138.02539062 C-45.0679924 133.04462332 -44.87913541 128.17045649 -44.47363281 123.20385742 C-43.91677976 115.58923595 -44.05557189 108.07051613 -44.32218361 100.44672585 C-44.47525692 95.70797458 -44.55115223 90.96712782 -44.64323902 86.22687244 C-44.72775799 82.09694989 -44.83797486 77.9706313 -45.0012207 73.84301758 C-46.11902264 44.75044453 -46.11902264 44.75044453 -41.06079102 38.30444336 C-38.27767183 35.61642436 -35.28744219 33.75591082 -31.83874512 32.0365448 C-28.56318761 30.19003434 -25.99496509 27.54167547 -23.3125 24.9375 C-22.24602847 23.94008217 -21.17847747 22.94381603 -20.109375 21.94921875 C-9.84861213 12.37707739 -9.84861213 12.37707739 -1.21875 1.36328125 C-0.8165625 0.91339844 -0.414375 0.46351563 0 0 Z " fill="#266C55" transform="translate(544,402)"/>
<path d="M0 0 C3.37027629 1.12342543 3.93188808 1.91331211 6.0625 4.625 C18.06158668 18.67393065 37.6232977 26.63407266 55.125 31.0625 C56.13344971 31.31926514 57.14189941 31.57603027 58.1809082 31.84057617 C71.66319046 35.22215378 84.51167748 37.3335721 98.40625 37.7890625 C102.65560232 37.9435925 106.78893302 38.41336108 111 39 C112.11375 39.144375 113.2275 39.28875 114.375 39.4375 C117 40 117 40 119 42 C119.99 41.34 120.98 40.68 122 40 C124.19140625 40.1015625 124.19140625 40.1015625 126.5625 40.625 C127.34753906 40.78226563 128.13257813 40.93953125 128.94140625 41.1015625 C131 42 131 42 132.27734375 44.0859375 C132.51582031 44.71757812 132.75429688 45.34921875 133 46 C133.33 45.67 133.66 45.34 134 45 C134.99 44.01 134.99 44.01 136 43 C137.62938774 43.59223134 139.25341128 44.19923628 140.875 44.8125 C141.77992188 45.14894531 142.68484375 45.48539063 143.6171875 45.83203125 C146 47 146 47 148 50 C146.37660195 51.70884005 144.70680947 53.37446717 143 55 C142.34 55 141.68 55 141 55 C140.67 53.68 140.34 52.36 140 51 C139.278125 51.495 138.55625 51.99 137.8125 52.5 C134.85151341 54.07919285 133.28746971 54.28178312 130 54 C132.97 54.33 135.94 54.66 139 55 C139 55.33 139 55.66 139 56 C137.69289063 56.01417969 136.38578125 56.02835938 135.0390625 56.04296875 C116.03050801 56.46028649 100.53717295 60.67050316 84 70 C83.03835938 70.53238281 82.07671875 71.06476563 81.0859375 71.61328125 C54.12435624 87.6391179 35.76371448 113.9240452 28 144 C25.66311171 153.2619871 24.4479299 162.01030704 24.5 171.5625 C24.50499512 172.7997583 24.50999023 174.0370166 24.51513672 175.31176758 C24.86255556 194.29161813 28.19412272 213.04316749 34.9609375 230.7890625 C36 234 36 234 35 237 C31.39008233 230.38321356 28.94695367 223.48723338 26.59057617 216.34814453 C25.94464397 214.39658413 25.28454349 212.45023756 24.62304688 210.50390625 C21.80367679 202.09617274 19.67943874 193.71160273 18 185 C17.81332764 184.17564453 17.62665527 183.35128906 17.43432617 182.50195312 C12.51548053 154.16674786 18.81967873 119.04595363 34.75390625 95.16015625 C41.76187915 85.30024307 41.76187915 85.30024307 45 82 C45.66 82 46.32 82 47 82 C47.20625 81.443125 47.4125 80.88625 47.625 80.3125 C49.54084039 77.09040481 52.08657415 75.35495414 55 73 C53.25976562 72.94392578 53.25976562 72.94392578 51.484375 72.88671875 C32.95041849 72.16668309 18.9188257 68.69297471 5.546875 54.91796875 C4 53 4 53 4 51 C4.680625 51.27714844 5.36125 51.55429688 6.0625 51.83984375 C9.35525731 53.14030774 12.67005462 54.36041843 16 55.5625 C17.19625 55.99691406 18.3925 56.43132812 19.625 56.87890625 C39.59083217 63.51107504 62.46455637 57.60186666 82 52 C81.45287354 51.96036133 80.90574707 51.92072266 80.34204102 51.87988281 C53.46416592 49.84797495 28.84345718 44.5088289 9 25 C8.34902344 24.36191406 7.69804687 23.72382813 7.02734375 23.06640625 C2.3490507 18.12078217 -4 10.05269278 -4 3 C-3.01 2.67 -2.02 2.34 -1 2 C-0.67 1.34 -0.34 0.68 0 0 Z " fill="#2C765D" transform="translate(314,164)"/>
<path d="M0 0 C0.25642504 7.52081278 0.42984638 15.04047505 0.54931641 22.56469727 C0.59918571 25.11655792 0.6671098 27.66813916 0.75439453 30.21899414 C1.31316639 46.98543682 0.45809207 58.58718274 -10 72 C-10.81754005 73.15262392 -11.62763965 74.31057149 -12.42919922 75.47436523 C-15.0576399 79.27068224 -17.70378718 82.76823827 -21 86 C-21.639375 86.845625 -22.27875 87.69125 -22.9375 88.5625 C-24.97819519 90.97423068 -26.24486052 91.66686799 -29 93 C-30.01241685 94.32392972 -31.01439389 95.65599167 -32 97 C-32.66 97 -33.32 97 -34 97 C-34 97.66 -34 98.32 -34 99 C-35.65532623 100.01866229 -37.32260138 101.01810813 -39 102 C-39.495 102.99 -39.495 102.99 -40 104 C-41.485 104.495 -41.485 104.495 -43 105 C-43.495 105.99 -43.495 105.99 -44 107 C-44.99 107 -45.98 107 -47 107 C-47.33 107.99 -47.66 108.98 -48 110 C-48.66 110 -49.32 110 -50 110 C-50 83.93 -50 57.86 -50 31 C-45.71 28.69 -41.42 26.38 -37 24 C-33.97320313 22.10166924 -31.0078226 20.19935666 -28.0625 18.1875 C-27.30960693 17.67977051 -26.55671387 17.17204102 -25.78100586 16.64892578 C-19.68930144 12.52089717 -13.68330755 8.27558157 -7.72265625 3.9609375 C-2.22310757 0 -2.22310757 0 0 0 Z " fill="#236452" transform="translate(482,459)"/>
<path d="M0 0 C0 4.1454718 -2.23604582 6.18330309 -4.6875 9.3125 C-11.44539312 18.2294893 -17.03339287 27.76496077 -22.56201172 37.47753906 C-23.78762684 39.62746358 -25.03295955 41.76397262 -26.28515625 43.8984375 C-34.9556522 59.23987169 -41.39642143 76.7476342 -45 94 C-45.17297607 94.80727539 -45.34595215 95.61455078 -45.52416992 96.44628906 C-47.15429668 104.90808251 -47.40551591 113.24624946 -47.42553711 121.83447266 C-47.43741651 124.23314173 -47.48674916 126.62921509 -47.53710938 129.02734375 C-47.72993175 147.54233368 -42.30771003 163.02980163 -29.4609375 176.6875 C-9.95963399 195.01253441 19.20089362 198.78939834 44.76025391 198.15820312 C53.68067155 197.72260172 62.55070478 196.47961077 71.39477539 195.27539062 C73.95193683 195.00508062 76.43081061 194.95126749 79 195 C76.22996985 197.77003015 72.94188025 198.62359923 69.3125 199.875 C68.55372559 200.13893555 67.79495117 200.40287109 67.01318359 200.67480469 C37.6124702 210.72601672 4.20495643 215.52014585 -24.8125 201.65625 C-39.56176055 193.35979094 -51.09298087 179.93480424 -55.6875 163.625 C-55.89955078 162.92117188 -56.11160156 162.21734375 -56.33007812 161.4921875 C-59.78391235 149.5508553 -59.2016156 137.31041158 -59 125 C-58.98324219 123.69289063 -58.96648437 122.38578125 -58.94921875 121.0390625 C-58.52386224 110.02840541 -55.89777488 99.58207184 -53 89 C-52.81453613 88.319375 -52.62907227 87.63875 -52.43798828 86.9375 C-45.09490125 60.85289853 -29.72861851 37.01886064 -13 16 C-12.06283776 14.8028376 -11.1267263 13.60485222 -10.19140625 12.40625 C-9.19015772 11.12495815 -8.18885553 9.84370823 -7.1875 8.5625 C-6.70684082 7.94640869 -6.22618164 7.33031738 -5.73095703 6.69555664 C-3.89967412 4.36013462 -2.10069481 2.10069481 0 0 Z " fill="#113132" transform="translate(272,348)"/>
<path d="M0 0 C2.50036038 2.98119892 4.70618895 6.04856491 6.8125 9.3125 C12.40010166 17.71480374 18.44662773 23.61836015 27 29 C27.70302246 29.46083984 28.40604492 29.92167969 29.13037109 30.39648438 C35.48708383 34.42515426 41.84469791 36.97991685 49 39.25 C50.01578125 39.58773437 51.0315625 39.92546875 52.078125 40.2734375 C57.5399204 42.05202216 62.94404686 43.53281939 68.59667969 44.55737305 C70.15669839 44.84468653 71.71078762 45.16723057 73.25488281 45.53051758 C80.59194656 47.22291511 87.963712 47.5013981 95.45584106 47.83288574 C149.13875087 50.28084071 149.13875087 50.28084071 167 66 C167.65871094 66.55042969 168.31742188 67.10085937 168.99609375 67.66796875 C171.57781319 69.98734257 172.91859341 71.37588278 173.375 74.875 C173.189375 75.926875 173.189375 75.926875 173 77 C171.02 77.99 171.02 77.99 169 79 C167.98679687 78.07767578 167.98679687 78.07767578 166.953125 77.13671875 C166.06109375 76.32847656 165.1690625 75.52023438 164.25 74.6875 C163.36828125 73.88699219 162.4865625 73.08648437 161.578125 72.26171875 C157.99247895 69.11612926 155.06441257 66.78968147 150.5 65.3125 C149.7471875 65.06113281 148.994375 64.80976563 148.21875 64.55078125 C145.73398634 63.83938193 145.73398634 63.83938193 142 64 C141.67 64.66 141.34 65.32 141 66 C139 65 139 65 138 63 C137.01 63 136.02 63 135 63 C134.67 62.34 134.34 61.68 134 61 C131.11304814 60.15760028 131.11304814 60.15760028 128 60 C127.01 60.66 126.02 61.32 125 62 C124.67 61.01 124.34 60.02 124 59 C122.86111328 59.01740234 122.86111328 59.01740234 121.69921875 59.03515625 C120.20841797 59.04869141 120.20841797 59.04869141 118.6875 59.0625 C117.70136719 59.07410156 116.71523438 59.08570313 115.69921875 59.09765625 C113 59 113 59 110 58 C107.9659279 57.92450866 105.93152639 57.85362762 103.89648438 57.81176758 C72.85593471 57.05138231 36.27781825 48.44568098 13.640625 25.62109375 C12.47339683 24.27299345 11.33169637 22.90168324 10.234375 21.49609375 C9.05195872 19.85710327 9.05195872 19.85710327 7 19 C6.67 19.99 6.34 20.98 6 22 C5.01 22 4.02 22 3 22 C0.22523488 14.5345605 -0.36801906 7.93285519 0 0 Z " fill="#56E198" transform="translate(307,145)"/>
<path d="M0 0 C1.0828125 1.0209375 1.0828125 1.0209375 2.1875 2.0625 C4.77647454 4.27961236 4.77647454 4.27961236 7.5 3.8125 C8.325 3.544375 9.15 3.27625 10 3 C10.86625 2.835 11.7325 2.67 12.625 2.5 C15.13198898 2.01934029 15.13198898 2.01934029 18 1 C19.7890625 2.14453125 19.7890625 2.14453125 21.625 3.8125 C22.23601562 4.35519531 22.84703125 4.89789063 23.4765625 5.45703125 C25 7 25 7 26 9 C27.134375 9.37125 28.26875 9.7425 29.4375 10.125 C35.21738514 12.18556511 39.41442037 16.02768938 44 20 C44.82757813 20.69351562 45.65515625 21.38703125 46.5078125 22.1015625 C58.30554671 32.27202303 70.12668427 45.5648368 74 61 C73.01 61.495 73.01 61.495 72 62 C72 61.01 72 60.02 72 59 C70.02 60.65 68.04 62.3 66 64 C65.54625 63.030625 65.0925 62.06125 64.625 61.0625 C63.34213779 57.92920418 63.34213779 57.92920418 61 57 C60.03515625 55.29296875 60.03515625 55.29296875 59.0625 53.1875 C57.62307504 50.17387246 56.03954062 47.65140281 54 45 C54 44.34 54 43.68 54 43 C53.34 43 52.68 43 52 43 C51.38125 42.21625 50.7625 41.4325 50.125 40.625 C48.11147826 38.13770844 46.91357141 37.14461734 44 36 C44 35.01 44 34.02 44 33 C43.01 33.33 42.02 33.66 41 34 C40.7525 33.38125 40.505 32.7625 40.25 32.125 C38.73970696 29.55750184 37.63908792 29.28184271 35 28 C34.319375 27.2575 33.63875 26.515 32.9375 25.75 C30.49771836 23.17467494 27.82982984 21.74824773 24.6875 20.125 C20.1003507 17.7389425 16.55836141 15.04534704 12.78125 11.546875 C9.45276128 8.65634532 6.40618983 7 2 7 C1.855625 6.401875 1.71125 5.80375 1.5625 5.1875 C1.1127561 3.43849596 0.57107659 1.71322977 0 0 Z " fill="#3FA578" transform="translate(440,355)"/>
<path d="M0 0 C1.14319652 3.35337646 0.85351312 5.20893732 -0.375 8.5 C-6.01860055 23.90122768 -3.12391444 41.25638315 3.42578125 55.98828125 C8.23045489 65.18034917 14.38551767 72.97253723 22 80 C23.299375 81.3303125 23.299375 81.3303125 24.625 82.6875 C29.71291216 87.7578986 29.71291216 87.7578986 36 91 C37.33333333 92.33333333 38.66666667 93.66666667 40 95 C41.97630407 96.36821051 43.97209016 97.70951192 46 99 C46.66 98.67 47.32 98.34 48 98 C48.99 98.66 49.98 99.32 51 100 C51 100.99 51 101.98 51 103 C45.84219612 101.51713138 41.57178996 99.23013544 37 96.5 C36.25596924 96.05712646 35.51193848 95.61425293 34.74536133 95.15795898 C15.19228691 83.36102782 -1.92698225 70.25083818 -10 48 C-13.34617344 32.41276169 -9.86351672 18.08276449 -3 4 C-2.03921723 2.63813575 -1.05156302 1.29305568 0 0 Z M35 89 C35.66 89 36.32 89 37 89 C36.67 89.66 36.34 90.32 36 91 C35.67 90.34 35.34 89.68 35 89 Z " fill="#1F574B" transform="translate(386,278)"/>
<path d="M0 0 C2.50036038 2.98119892 4.70618895 6.04856491 6.8125 9.3125 C12.40010166 17.71480374 18.44662773 23.61836015 27 29 C27.70302246 29.46083984 28.40604492 29.92167969 29.13037109 30.39648438 C35.48708383 34.42515426 41.84469791 36.97991685 49 39.25 C50.01578125 39.58773437 51.0315625 39.92546875 52.078125 40.2734375 C57.54169924 42.05260142 62.94747259 43.53374959 68.60205078 44.55810547 C70.14431414 44.84231405 71.68073306 45.16163456 73.20654297 45.52392578 C81.72938707 47.50306091 90.41786561 47.69404082 99.125 48.125 C100.76566034 48.21157239 102.4062859 48.2988067 104.046875 48.38671875 C108.03089003 48.59877821 112.01526855 48.80187826 116 49 C116 49.33 116 49.66 116 50 C115.20827393 49.98428955 114.41654785 49.9685791 113.60083008 49.95239258 C110.00479305 49.88993301 106.4088703 49.85097365 102.8125 49.8125 C101.56662109 49.78736328 100.32074219 49.76222656 99.03710938 49.73632812 C97.83505859 49.72666016 96.63300781 49.71699219 95.39453125 49.70703125 C94.28956299 49.6913208 93.18459473 49.67561035 92.04614258 49.65942383 C88.61877845 50.04262275 86.72611588 50.91461483 84 53 C84 53.66 84 54.32 84 55 C76.63711773 54.49720826 69.74678439 53.1565072 62.625 51.25 C61.10338257 50.84467041 61.10338257 50.84467041 59.55102539 50.43115234 C40.43243778 45.21266406 21.38945468 35.98639314 9 20 C8.34 19.67 7.68 19.34 7 19 C6.67 19.99 6.34 20.98 6 22 C5.01 22 4.02 22 3 22 C0.22523488 14.5345605 -0.36801906 7.93285519 0 0 Z " fill="#56D899" transform="translate(307,145)"/>
<path d="M0 0 C1.60101563 -0.01740234 1.60101563 -0.01740234 3.234375 -0.03515625 C12.15170997 -0.00229138 19.05412564 1.95426266 26.9375 6.0625 C27.78441406 6.49949219 28.63132812 6.93648437 29.50390625 7.38671875 C30.43009766 7.87591797 30.43009766 7.87591797 31.375 8.375 C30.76269531 8.48070312 30.15039062 8.58640625 29.51953125 8.6953125 C26.61836657 9.61480732 25.61343118 11.53378946 23.8125 13.875 C21.39684425 16.39568426 18.63214839 17.22541821 15.375 18.375 C15.375 17.715 15.375 17.055 15.375 16.375 C14.055 16.045 12.735 15.715 11.375 15.375 C9.375 8.625 9.375 8.625 9.375 6.375 C-4.81992853 7.35851625 -18.36431004 9.08839541 -31.41796875 15.09765625 C-34.625 16.375 -34.625 16.375 -37.625 15.375 C-35.975 14.715 -34.325 14.055 -32.625 13.375 C-32.955 12.715 -33.285 12.055 -33.625 11.375 C-36.65434491 10.71727572 -36.65434491 10.71727572 -39.625 10.375 C-37.0397257 7.7897257 -34.63623552 7.15003461 -31.1875 5.9375 C-29.45693359 5.32068359 -29.45693359 5.32068359 -27.69140625 4.69140625 C-26.33795313 4.24642597 -24.98226643 3.8082097 -23.625 3.375 C-22.80580078 3.1059082 -21.98660156 2.83681641 -21.14257812 2.55957031 C-14.01395566 0.39211858 -7.4244808 -0.08128994 0 0 Z " fill="#0B2827" transform="translate(444.625,219.625)"/>
<path d="M0 0 C0 28.71 0 57.42 0 87 C-0.33 87 -0.66 87 -1 87 C-1.84079062 73.10631033 -2.10441105 59.29150092 -2 45.375 C-1.90156755 32.20380097 -2.09756016 19.14379458 -3 6 C-3.66 6.33 -4.32 6.66 -5 7 C-5 8.65 -5 10.3 -5 12 C-5.53625 12.2475 -6.0725 12.495 -6.625 12.75 C-10.23939604 14.6523137 -13.72530224 16.72530224 -16.625 19.625 C-18.25338923 21.25338923 -19.94902247 21.97451124 -22 23 C-23.02104551 23.97850195 -24.0206121 24.97980427 -25 26 C-28.05871387 28.60557107 -31.38379611 30.21550184 -34.97265625 31.953125 C-37.79841089 33.41228154 -40.36600481 35.22358464 -43 37 C-44.485 37.495 -44.485 37.495 -46 38 C-46.515625 38.515625 -47.03125 39.03125 -47.5625 39.5625 C-48.036875 40.036875 -48.51125 40.51125 -49 41 C-49.66 41 -50.32 41 -51 41 C-51.33 41.99 -51.66 42.98 -52 44 C-50.35 44.33 -48.7 44.66 -47 45 C-47 45.33 -47 45.66 -47 46 C-54.24881002 46.30203375 -60.098911 45.300363 -67 43 C-67 42.34 -67 41.68 -67 41 C-66.13761719 40.68289063 -65.27523437 40.36578125 -64.38671875 40.0390625 C-46.92440174 33.36392126 -31.55273391 24.73464925 -17 13 C-15.9010754 12.12625966 -14.80211879 11.25255957 -13.703125 10.37890625 C-8.58126023 6.26876653 -8.58126023 6.26876653 -3.828125 1.75 C-2 0 -2 0 0 0 Z " fill="#4EC38D" transform="translate(610,332)"/>
<path d="M0 0 C0.66 0 1.32 0 2 0 C2 17.49 2 34.98 2 53 C1.67 53 1.34 53 1 53 C0.71157159 48.46530711 0.42689008 43.93039925 0.14550781 39.39526367 C0.04950377 37.8561384 -0.04748038 36.3170739 -0.14550781 34.77807617 C-0.65000624 26.84766976 -1.14473353 18.95129812 -1 11 C-1.43570313 11.51949219 -1.87140625 12.03898437 -2.3203125 12.57421875 C-5.1464912 15.88366177 -7.85591013 19.02464558 -11.3125 21.6875 C-14.15113769 23.7351456 -14.15113769 23.7351456 -14.875 26.5625 C-16.44377117 29.96150421 -18.67284947 30.59077379 -22.02734375 32.0078125 C-25.47384811 33.74130182 -26.7796307 35.3388921 -28 39 C-29.65365406 40.02137457 -31.32376502 41.01612294 -33 42 C-34.29271707 42.97154513 -35.56296759 43.97350786 -36.8125 45 C-37.41707031 45.495 -38.02164062 45.99 -38.64453125 46.5 C-40.33522893 48.03402279 -40.33522893 48.03402279 -40 51 C-42 52.6875 -42 52.6875 -44 54 C-44.95462733 49.72690625 -45.09437492 46.26076635 -44 42 C-40.79808199 37.73077598 -36.17108679 34.68182823 -31.94140625 31.50439453 C-28.90560407 29.15195325 -26.11181606 26.5632381 -23.3125 23.9375 C-22.78108398 23.44354736 -22.24966797 22.94959473 -21.70214844 22.44067383 C-15.00583018 16.18673956 -8.30035226 9.86491649 -2.4375 2.8125 C-1.633125 1.884375 -0.82875 0.95625 0 0 Z " fill="#52D496" transform="translate(544,403)"/>
<path d="M0 0 C1.5 1.375 1.5 1.375 3 3 C3 3.66 3 4.32 3 5 C3.969375 5.2475 4.93875 5.495 5.9375 5.75 C6.948125 6.1625 7.95875 6.575 9 7 C9.875 9.125 9.875 9.125 10 11 C10.99 10.67 11.98 10.34 13 10 C18.52681252 17.12594102 23.85487421 24.47262964 27 33 C26.67 33.99 26.34 34.98 26 36 C25.67 35.01 25.34 34.02 25 33 C23.02 34.65 21.04 36.3 19 38 C18.54625 37.030625 18.0925 36.06125 17.625 35.0625 C16.34213779 31.92920418 16.34213779 31.92920418 14 31 C13.03515625 29.29296875 13.03515625 29.29296875 12.0625 27.1875 C10.62307504 24.17387246 9.03954062 21.65140281 7 19 C7 18.34 7 17.68 7 17 C6.34 17 5.68 17 5 17 C4.38125 16.21625 3.7625 15.4325 3.125 14.625 C1.11147826 12.13770844 -0.08642859 11.14461734 -3 10 C-3 9.01 -3 8.02 -3 7 C-3.99 7.33 -4.98 7.66 -6 8 C-7 6 -8 4 -9 2 C-7.68 2 -6.36 2 -5 2 C-3.31301918 1.38655243 -1.64034193 0.72904086 0 0 Z " fill="#328668" transform="translate(487,381)"/>
<path d="M0 0 C0 6.27 0 12.54 0 19 C-0.495 17.515 -0.495 17.515 -1 16 C-2.33076989 15.65657551 -3.66431979 15.32380126 -5 15 C-5.66 14.01 -6.32 13.02 -7 12 C-7.33 12.99 -7.66 13.98 -8 15 C-10.31104818 16.05047644 -12.64583651 17.05007438 -15 18 C-15.66 18.66 -16.32 19.32 -17 20 C-19.125 20.625 -19.125 20.625 -21 21 C-21.33 22.32 -21.66 23.64 -22 25 C-25.96 25.495 -25.96 25.495 -30 26 C-30 26.66 -30 27.32 -30 28 C-36 31 -42 34 -48 37 C-48.41015625 34.265625 -48.41015625 34.265625 -48 31 C-45.7762127 29.22097016 -43.92688041 28.03908349 -41.4375 26.75 C-40.05017491 25.97606736 -38.66480877 25.1986145 -37.28125 24.41796875 C-36.56839844 24.0214209 -35.85554688 23.62487305 -35.12109375 23.21630859 C-31.79557433 21.30934062 -28.61553761 19.20382913 -25.4375 17.0625 C-24.82608154 16.65225586 -24.21466309 16.24201172 -23.5847168 15.81933594 C-17.92465575 11.99478909 -12.36578647 8.03026252 -6.828125 4.03125 C-1.21538462 0 -1.21538462 0 0 0 Z " fill="#4CC28D" transform="translate(481,459)"/>
<path d="M0 0 C8.89233586 -0.38724688 16.49434796 0.41472945 25 3 C26.50046875 3.40025391 26.50046875 3.40025391 28.03125 3.80859375 C35.88840528 6.08676377 41.73653275 9.78548701 48 15 C48.66644531 15.55300781 49.33289063 16.10601562 50.01953125 16.67578125 C52.58383766 18.9998716 53.9198603 20.38559562 54.375 23.875 C54.189375 24.926875 54.189375 24.926875 54 26 C52.02 26.99 52.02 26.99 50 28 C49.32453125 27.38511719 48.6490625 26.77023438 47.953125 26.13671875 C47.06109375 25.32847656 46.1690625 24.52023438 45.25 23.6875 C44.36828125 22.88699219 43.4865625 22.08648437 42.578125 21.26171875 C39.00941444 18.13098631 36.20501897 15.84990033 31.625 14.5 C27.87123885 13.32733742 24.47255955 11.86983976 21 10 C21.33 8.35 21.66 6.7 22 5 C17.12929813 3.11010621 12.77608662 2.5985553 7.625 2.375 C6.88894531 2.33632812 6.15289062 2.29765625 5.39453125 2.2578125 C3.59672594 2.16442002 1.79839892 2.0811629 0 2 C0 1.34 0 0.68 0 0 Z " fill="#57E09B" transform="translate(426,196)"/>
<path d="M0 0 C0.23828125 2.32421875 0.23828125 2.32421875 0 5 C-6.58077253 11.58077253 -18.29951176 14.64391047 -26.8190918 18.10546875 C-28.82641939 18.92880339 -30.82110884 19.77569183 -32.8125 20.63671875 C-35.29778338 21.69966471 -37.77451695 22.69932281 -40.3125 23.625 C-43.76251991 24.83687115 -43.76251991 24.83687115 -46 26 C-46 24.35 -46 22.7 -46 21 C-37.07889777 16.39584837 -27.92377524 12.38422372 -18.72460938 8.37304688 C-11.6229283 5.27243294 -11.6229283 5.27243294 -4.79296875 1.62890625 C-2 0 -2 0 0 0 Z " fill="#2B715D" transform="translate(413,502)"/>
<path d="M0 0 C11.16004874 1.01454989 11.16004874 1.01454989 15.9765625 4.1796875 C15.9559375 4.9428125 15.9353125 5.7059375 15.9140625 6.4921875 C15.84713409 9.28154536 15.84713409 9.28154536 16.9765625 12.1796875 C16.6465625 12.8396875 16.3165625 13.4996875 15.9765625 14.1796875 C13.9765625 13.1796875 13.9765625 13.1796875 12.9765625 11.1796875 C11.9865625 11.1796875 10.9965625 11.1796875 9.9765625 11.1796875 C9.4815625 10.1896875 9.4815625 10.1896875 8.9765625 9.1796875 C6.08961064 8.33728778 6.08961064 8.33728778 2.9765625 8.1796875 C1.9865625 8.8396875 0.9965625 9.4996875 -0.0234375 10.1796875 C-0.5184375 8.6946875 -0.5184375 8.6946875 -1.0234375 7.1796875 C-1.78269531 7.19128906 -2.54195313 7.20289063 -3.32421875 7.21484375 C-4.31808594 7.22386719 -5.31195313 7.23289063 -6.3359375 7.2421875 C-7.32207031 7.25378906 -8.30820312 7.26539063 -9.32421875 7.27734375 C-12.0234375 7.1796875 -12.0234375 7.1796875 -15.0234375 6.1796875 C-16.54144387 6.05591427 -18.06356906 5.97895324 -19.5859375 5.93359375 C-20.46507812 5.90072266 -21.34421875 5.86785156 -22.25 5.83398438 C-24.0988333 5.7727906 -25.94779986 5.71549816 -27.796875 5.66210938 C-28.67601562 5.62794922 -29.55515625 5.59378906 -30.4609375 5.55859375 C-31.26402344 5.5335376 -32.06710937 5.50848145 -32.89453125 5.48266602 C-35.0234375 5.1796875 -35.0234375 5.1796875 -38.0234375 3.1796875 C-37.10530273 3.19539795 -36.18716797 3.2111084 -35.24121094 3.22729492 C-31.82692801 3.2784962 -28.41305446 3.31607229 -24.99853516 3.34448242 C-23.52223259 3.35954673 -22.04597462 3.38000232 -20.56982422 3.40600586 C-18.44487492 3.44249489 -16.32051849 3.45943683 -14.1953125 3.47265625 C-12.9175293 3.4883667 -11.63974609 3.50407715 -10.32324219 3.52026367 C-5.9720454 3.07117226 -4.21930807 0.25075991 0 0 Z " fill="#54E095" transform="translate(432.0234375,196.8203125)"/>
<path d="M0 0 C5.36688312 0.8474026 5.36688312 0.8474026 7.90429688 1.45898438 C16.53724916 3.46897594 25.30562053 3.68848526 34.125 4.125 C35.76566034 4.21157239 37.4062859 4.2988067 39.046875 4.38671875 C43.03089003 4.59877821 47.01526855 4.80187826 51 5 C51 5.33 51 5.66 51 6 C50.20827393 5.98428955 49.41654785 5.9685791 48.60083008 5.95239258 C45.00479305 5.88993301 41.4088703 5.85097365 37.8125 5.8125 C36.56662109 5.78736328 35.32074219 5.76222656 34.03710938 5.73632812 C32.83505859 5.72666016 31.63300781 5.71699219 30.39453125 5.70703125 C29.28956299 5.6913208 28.18459473 5.67561035 27.04614258 5.65942383 C23.61877845 6.04262275 21.72611588 6.91461483 19 9 C19 9.66 19 10.32 19 11 C11.40935336 10.51298949 4.32940833 9.00236413 -3 7 C-2.34 5.68 -1.68 4.36 -1 3 C0.32 3 1.64 3 3 3 C3 2.34 3 1.68 3 1 C2.01 0.67 1.02 0.34 0 0 Z " fill="#4ECC8D" transform="translate(372,189)"/>
<path d="M0 0 C2.4837537 2.4837537 2.32803116 3.56777522 2.5625 7 C2.77217523 10.63718775 2.77217523 10.63718775 4 14 C3.34 14 2.68 14 2 14 C2.00222061 14.92770706 2.00444122 15.85541412 2.00672913 16.81123352 C2.0268427 25.5933439 2.04203027 34.37544645 2.05181217 43.15757465 C2.05701033 47.67154747 2.0640517 52.18550111 2.07543945 56.69946289 C2.08637805 61.06314976 2.09229989 65.42681828 2.09487724 69.79051781 C2.09671185 71.44770788 2.10029399 73.10489706 2.10573006 74.76207924 C2.13339949 83.55410333 2.05539702 92.25548481 1 101 C0.67 101 0.34 101 0 101 C0 67.67 0 34.34 0 0 Z " fill="#347E66" transform="translate(563,378)"/>
<path d="M0 0 C0.33 0 0.66 0 1 0 C1.15033691 0.96599121 1.30067383 1.93198242 1.45556641 2.92724609 C5.02151314 26.88271217 5.02151314 26.88271217 11.99609375 50 C13 53 13 53 12 56 C7.96707909 48.65633239 5.46215569 40.87201777 2.875 32.9375 C2.4289113 31.58771671 1.98230021 30.23810595 1.53515625 28.88867188 C-4.30219532 11.19500405 -4.30219532 11.19500405 -4 5 C-3.01 4.67 -2.02 4.34 -1 4 C-0.26676204 1.98491642 -0.26676204 1.98491642 0 0 Z " fill="#1D4E44" transform="translate(337,345)"/>
<path d="M0 0 C5.81261371 1.73982995 10.83169994 3.8110489 16 7 C15.443125 7.04125 14.88625 7.0825 14.3125 7.125 C11.38720898 8.23186687 10.30096034 10.07750156 8.4375 12.5 C6.02184425 15.02068426 3.25714839 15.85041821 0 17 C0 16.34 0 15.68 0 15 C-0.639375 14.855625 -1.27875 14.71125 -1.9375 14.5625 C-4 14 -4 14 -5 13 C-5.04080783 11.00041636 -5.04254356 8.99954746 -5 7 C-4.030625 6.54625 -3.06125 6.0925 -2.0625 5.625 C1.07079582 4.34213779 1.07079582 4.34213779 2 2 C1.34 2 0.68 2 0 2 C0 1.34 0 0.68 0 0 Z " fill="#19493B" transform="translate(460,221)"/>
<path d="M0 0 C2.50036038 2.98119892 4.70618895 6.04856491 6.8125 9.3125 C10.60951526 15.08511964 15.08383605 20.15809835 20 25 C19.01 26.32 18.02 27.64 17 29 C13.66666667 25.66666667 10.33333333 22.33333333 7 19 C6.67 19.99 6.34 20.98 6 22 C5.01 22 4.02 22 3 22 C0.22523488 14.5345605 -0.36801906 7.93285519 0 0 Z " fill="#4EC48E" transform="translate(307,145)"/>
<path d="M0 0 C1.4606285 2.64738916 2 3.89448334 2 7 C-0.00069758 11.2119949 -2.01709809 12.73698755 -6 15 C-7.29335849 15.97069109 -8.56340956 16.97297009 -9.8125 18 C-10.41707031 18.495 -11.02164062 18.99 -11.64453125 19.5 C-13.33522893 21.03402279 -13.33522893 21.03402279 -13 24 C-15 25.6875 -15 25.6875 -17 27 C-17.9571709 22.71552071 -18.13257465 19.26522794 -17 15 C-13.62356558 10.67592542 -9.05073441 7.43508727 -4.62573242 4.25170898 C-2.9359495 2.95068525 -1.47553216 1.5369545 0 0 Z " fill="#53D498" transform="translate(517,430)"/>
<path d="M0 0 C6.8388057 1.0131564 12.04374523 6.56423408 16.3203125 11.75390625 C17.89643086 14.36325775 17.80712724 16.54713054 17.375 19.5 C18.035 19.5 18.695 19.5 19.375 19.5 C19.375 21.48 19.375 23.46 19.375 25.5 C18.859375 24.84 18.34375 24.18 17.8125 23.5 C15.86044961 21.09747644 13.89035901 18.72408513 11.875 16.375 C11.3078125 15.71242187 10.740625 15.04984375 10.15625 14.3671875 C8.40670668 12.42223344 8.40670668 12.42223344 6.15625 10.8828125 C5.5684375 10.42648438 4.980625 9.97015625 4.375 9.5 C4.375 8.84 4.375 8.18 4.375 7.5 C3.6325 7.4175 2.89 7.335 2.125 7.25 C-1.13721354 6.3603054 -2.43454878 5.01496251 -4.625 2.5 C-2.625 0.5 -2.625 0.5 0 0 Z " fill="#56DD9C" transform="translate(492.625,237.5)"/>
<path d="M0 0 C0.66 0.33 1.32 0.66 2 1 C-0.1385485 3.1385485 -1.13275314 3.42655063 -4 4 C-4.33 5.32 -4.66 6.64 -5 8 C-7.64 8.33 -10.28 8.66 -13 9 C-13 9.66 -13 10.32 -13 11 C-19 14 -25 17 -31 20 C-31.4453125 17.29296875 -31.4453125 17.29296875 -31 14 C-28.59147563 12.07869621 -26.55406851 10.73481446 -23.875 9.3125 C-23.20984375 8.93544922 -22.5446875 8.55839844 -21.859375 8.16992188 C-17.97036918 5.98521566 -14.00460391 3.96487575 -10 2 C-9.67 3.32 -9.34 4.64 -9 6 C-6.03 4.02 -3.06 2.04 0 0 Z " fill="#47B386" transform="translate(464,476)"/>
<path d="M0 0 C4.64794427 1.54931476 5.90408808 4.80817615 8 9 C8.66 9.66 9.32 10.32 10 11 C11.74627478 13.61941217 12.38722388 15.03824877 13 18 C12.34 18.33 11.68 18.66 11 19 C11 18.01 11 17.02 11 16 C9.02 17.65 7.04 19.3 5 21 C4.319375 19.5459375 4.319375 19.5459375 3.625 18.0625 C2.34213779 14.92920418 2.34213779 14.92920418 0 14 C-1 12.2578125 -1 12.2578125 -2 10.125 C-3.21201839 7.55892982 -4.41269132 5.38096302 -6 3 C-4.68 3 -3.36 3 -2 3 C-2 2.34 -2 1.68 -2 1 C-1.34 0.67 -0.68 0.34 0 0 Z " fill="#266B56" transform="translate(501,398)"/>
<path d="M0 0 C0 17.49 0 34.98 0 53 C-0.33 53 -0.66 53 -1 53 C-1.28885015 48.48364349 -1.57350306 43.96704773 -1.85449219 39.45019531 C-1.9503814 37.9178985 -2.04736038 36.38566945 -2.14550781 34.85351562 C-2.67594157 26.5614287 -3.13223342 18.31417628 -3 10 C-6 8.66666667 -6 8.66666667 -9 10 C-7.6834994 5.81113445 -4.97532335 0 0 0 Z " fill="#4FC090" transform="translate(546,403)"/>
<path d="M0 0 C3.69669622 0.90395403 7.35232813 1.91592556 11 3 C11 3.66 11 4.32 11 5 C10.360625 5.12375 9.72125 5.2475 9.0625 5.375 C8.381875 5.58125 7.70125 5.7875 7 6 C6.67 6.66 6.34 7.32 6 8 C-0.30367803 7.41632611 -5.98660063 5.95928381 -12 4 C-12 3.01 -12 2.02 -12 1 C-7.75705977 -1.82862682 -4.86335719 -0.91052453 0 0 Z " fill="#59E49D" transform="translate(364,187)"/>
<path d="M0 0 C0.99 0.33 1.98 0.66 3 1 C2.67 1.515625 2.34 2.03125 2 2.5625 C0.67989123 5.78026512 0.86757895 8.5570528 1 12 C1.66 12 2.32 12 3 12 C3 11.34 3 10.68 3 10 C3.66 10 4.32 10 5 10 C4.9175 10.886875 4.835 11.77375 4.75 12.6875 C5.05208163 16.69008159 6.29727467 18.12835434 9 21 C9.99 20.67 10.98 20.34 12 20 C12.99 20.66 13.98 21.32 15 22 C14.34 22.33 13.68 22.66 13 23 C13.57352893 26.87132028 15.48704352 29.08172796 18 32 C8.85981411 28.01793256 2.51733539 18.53417056 -2 10 C-2.91999078 7.63020231 -3.50002596 5.49987022 -4 3 C-3.01 2.67 -2.02 2.34 -1 2 C-0.67 1.34 -0.34 0.68 0 0 Z " fill="#3B9371" transform="translate(314,164)"/>
<path d="M0 0 C0.33 0.66 0.66 1.32 1 2 C3.02463255 2.65213292 3.02463255 2.65213292 5 3 C2.80790646 5.19209354 1.24422623 5.83155986 -1.625 6.9375 C-2.51445312 7.28296875 -3.40390625 7.6284375 -4.3203125 7.984375 C-6.71161424 8.89069927 -9.10445428 9.79246094 -11.5 10.6875 C-14.7917209 11.85224179 -14.7917209 11.85224179 -17 13 C-17 11.35 -17 9.7 -17 8 C-11.40037997 5.1494892 -5.80862559 2.39921492 0 0 Z " fill="#1F5349" transform="translate(384,515)"/>
<path d="M0 0 C3.51061278 4.19008622 5 6.40150262 5 12 C5.8387856 13.94773557 5.8387856 13.94773557 7 15.75 C7.66 16.8225 8.32 17.895 9 19 C8.34 19 7.68 19 7 19 C6.67 19.99 6.34 20.98 6 22 C5.01 22 4.02 22 3 22 C0.22523488 14.5345605 -0.36801906 7.93285519 0 0 Z " fill="#46B481" transform="translate(307,145)"/>
<path d="M0 0 C0.33 0 0.66 0 1 0 C1.23074219 1.26972656 1.46148437 2.53945313 1.69921875 3.84765625 C3.52737813 13.58865924 5.67407751 22.83704622 9.14453125 32.12890625 C10 35 10 35 9 38 C5.96715137 32.16345131 3.39371268 26.29778909 1.125 20.125 C0.79242188 19.29097656 0.45984375 18.45695312 0.1171875 17.59765625 C-2.22928032 11.16475506 -1.95238928 6.53292792 0 0 Z " fill="#1A3F3A" transform="translate(340,363)"/>
<path d="M0 0 C5 1.66666667 10 3.33333333 15 5 C11.25 8 11.25 8 9 8 C9 8.66 9 9.32 9 10 C4.76570244 8.68938409 0.92592596 7.05643741 -3 5 C-2.34 4.67 -1.68 4.34 -1 4 C-0.34786708 1.97536745 -0.34786708 1.97536745 0 0 Z " fill="#4FCB8F" transform="translate(343,180)"/>
<path d="M0 0 C0 0.33 0 0.66 0 1 C-0.79172607 0.98428955 -1.58345215 0.9685791 -2.39916992 0.95239258 C-5.99520695 0.88993301 -9.5911297 0.85097365 -13.1875 0.8125 C-14.43337891 0.78736328 -15.67925781 0.76222656 -16.96289062 0.73632812 C-18.16494141 0.72666016 -19.36699219 0.71699219 -20.60546875 0.70703125 C-21.71043701 0.6913208 -22.81540527 0.67561035 -23.95385742 0.65942383 C-27.38122155 1.04262275 -29.27388412 1.91461483 -32 4 C-32 4.66 -32 5.32 -32 6 C-35.3 5.67 -38.6 5.34 -42 5 C-30.79132353 -4.89000865 -13.89564775 -0.813971 0 0 Z " fill="#49BC86" transform="translate(423,194)"/>
<path d="M0 0 C1.9375 0.6875 1.9375 0.6875 4 2 C4.75 4.625 4.75 4.625 5 7 C1.23705575 9.6349562 -0.96090705 10.33934506 -5.51953125 9.85546875 C-6.54111328 9.75556641 -7.56269531 9.65566406 -8.61523438 9.55273438 C-9.67033203 9.43220703 -10.72542969 9.31167969 -11.8125 9.1875 C-12.88693359 9.07857422 -13.96136719 8.96964844 -15.06835938 8.85742188 C-17.7142401 8.58695407 -20.35741043 8.30067672 -23 8 C-23 7.67 -23 7.34 -23 7 C-22.20335937 6.96261719 -21.40671875 6.92523438 -20.5859375 6.88671875 C-14.68223426 6.52043059 -10.03056497 6.21397206 -5 3 C-4.67 3.99 -4.34 4.98 -4 6 C-4.33 6.66 -4.66 7.32 -5 8 C-2.49034386 7.29660434 -2.49034386 7.29660434 0 6 C0.98617135 4.05714832 0.98617135 4.05714832 1 2 C0.67 1.34 0.34 0.68 0 0 Z " fill="#4ABB87" transform="translate(460,211)"/>
<path d="M0 0 C3.21272249 1.43993643 5.6206664 3.23018372 8.25 5.5625 C8.95640625 6.18253906 9.6628125 6.80257812 10.390625 7.44140625 C10.92171875 7.95574219 11.4528125 8.47007812 12 9 C12 9.33 12 9.66 12 10 C10.96101563 10.24234375 9.92203125 10.4846875 8.8515625 10.734375 C0.96530075 12.61511977 -6.58227402 14.64775845 -14 18 C-14 17.34 -14 16.68 -14 16 C-12.88625 15.54625 -11.7725 15.0925 -10.625 14.625 C-7.03800992 13.27534014 -7.03800992 13.27534014 -5 11 C-1.71297314 9.78522921 1.58607883 8.78782796 5 8 C5 7.01 5 6.02 5 5 C4.01 4.67 3.02 4.34 2 4 C2 3.34 2 2.68 2 2 C1.34 2 0.68 2 0 2 C0 1.34 0 0.68 0 0 Z " fill="#0E3426" transform="translate(475,229)"/>
<path d="M0 0 C0.83581865 2.90109693 1.10853541 5.43485837 1.0625 8.44921875 C1.05476563 9.29806641 1.04703125 10.14691406 1.0390625 11.02148438 C1.01330694 12.77930109 0.9872717 14.53711373 0.9609375 16.29492188 C0.90975141 21.95524977 1.2717642 27.38461923 2 33 C-0.5654594 30.4345406 -0.54046087 28.52313332 -1 25 C-2.65 24.67 -4.3 24.34 -6 24 C-5.71125 23.40832031 -5.4225 22.81664062 -5.125 22.20703125 C-2.24613824 16.37474347 -2.24613824 16.37474347 -2 10 C-2.33 9.34 -2.66 8.68 -3 8 C-2.44140625 6.0546875 -2.44140625 6.0546875 -1.5625 3.875 C-1.27503906 3.15054687 -0.98757813 2.42609375 -0.69140625 1.6796875 C-0.34916016 0.84824219 -0.34916016 0.84824219 0 0 Z " fill="#246850" transform="translate(418,291)"/>
<path d="M0 0 C42.09132222 1.09132222 42.09132222 1.09132222 46 5 C45.34 5.33 44.68 5.66 44 6 C43.01 5.67 42.02 5.34 41 5 C40.01 5.66 39.02 6.32 38 7 C37.505 5.515 37.505 5.515 37 4 C36.24074219 4.01160156 35.48148437 4.02320313 34.69921875 4.03515625 C33.70535156 4.04417969 32.71148437 4.05320313 31.6875 4.0625 C30.70136719 4.07410156 29.71523438 4.08570313 28.69921875 4.09765625 C26 4 26 4 23 3 C21.48199363 2.87622677 19.95986844 2.79926574 18.4375 2.75390625 C17.55835938 2.72103516 16.67921875 2.68816406 15.7734375 2.65429688 C13.9246042 2.5931031 12.07563764 2.53581066 10.2265625 2.48242188 C9.34742188 2.44826172 8.46828125 2.41410156 7.5625 2.37890625 C6.75941406 2.3538501 5.95632813 2.32879395 5.12890625 2.30297852 C3 2 3 2 0 0 Z " fill="#40AC79" transform="translate(394,200)"/>
<path d="M0 0 C1.4606285 2.64738916 2 3.89448334 2 7 C0.03970608 11.12693457 -1.96331715 12.93243073 -6 15 C-6.763125 15.391875 -7.52625 15.78375 -8.3125 16.1875 C-8.869375 16.455625 -9.42625 16.72375 -10 17 C-9.525625 16.4225 -9.05125 15.845 -8.5625 15.25 C-6.66999136 12.52478756 -6.16902526 10.30994579 -5.75 7.0625 C-4.62035644 3.9559802 -2.39159805 2.20762897 0 0 Z " fill="#49C089" transform="translate(517,430)"/>
<path d="M0 0 C1.32 0.33 2.64 0.66 4 1 C3.01 1.33 2.02 1.66 1 2 C0.67 1.34 0.34 0.68 0 0 Z M-10.1875 2 C-6.63944218 3.11311618 -4.57244368 2.85058183 -1 2 C-1 2.99 -1 3.98 -1 5 C1.475 5.495 1.475 5.495 4 6 C4 6.33 4 6.66 4 7 C-3.24881002 7.30203375 -9.098911 6.300363 -16 4 C-16 3.34 -16 2.68 -16 2 C-13 1 -13 1 -10.1875 2 Z " fill="#4CBB88" transform="translate(559,371)"/>
<path d="M0 0 C0 0.99 0 1.98 0 3 C-1.24735567 3.6509259 -2.49801832 4.29551669 -3.75 4.9375 C-4.44609375 5.29714844 -5.1421875 5.65679687 -5.859375 6.02734375 C-7.92985559 6.96812782 -9.75807453 7.62634575 -12 8 C-14.25 7.0625 -14.25 7.0625 -16 6 C-11.34887439 2.09305449 -6.17401031 -0.56127366 0 0 Z " fill="#4FCB8F" transform="translate(563,367)"/>
<path d="M0 0 C0.33 1.65 0.66 3.3 1 5 C-0.45449401 6.0055761 -1.91372443 7.00430435 -3.375 8 C-4.59316406 8.8353125 -4.59316406 8.8353125 -5.8359375 9.6875 C-8 11 -8 11 -10 11 C-10.33 9.35 -10.66 7.7 -11 6 C-9.54550599 4.9944239 -8.08627557 3.99569565 -6.625 3 C-5.40683594 2.1646875 -5.40683594 2.1646875 -4.1640625 1.3125 C-2 0 -2 0 0 0 Z " fill="#4DC28F" transform="translate(465,471)"/>
<path d="M0 0 C-1 3 -1 3 -3 4 C-0.03 4.33 2.94 4.66 6 5 C6 5.33 6 5.66 6 6 C-0.11090483 6.09945415 -5.97403427 6.0712828 -12 5 C-12 4.01 -12 3.02 -12 2 C-7.92816411 -1.45489106 -5.05691853 -1.09070792 0 0 Z " fill="#4FD090" transform="translate(403,195)"/>
<path d="M0 0 C0 1.65 0 3.3 0 5 C-4.96993194 7.43425238 -8.34605369 8.34615998 -14 8 C-11.72402354 5.50447597 -9.39278822 3.93377014 -6.4375 2.3125 C-5.65246094 1.87550781 -4.86742187 1.43851562 -4.05859375 0.98828125 C-2 0 -2 0 0 0 Z " fill="#36876D" transform="translate(413,502)"/>
<path d="M0 0 C0 4.29 0 8.58 0 13 C-0.33 12.01 -0.66 11.02 -1 10 C-1.639375 9.87625 -2.27875 9.7525 -2.9375 9.625 C-3.618125 9.41875 -4.29875 9.2125 -5 9 C-6.25 6.4375 -6.25 6.4375 -7 4 C-2.25 0 -2.25 0 0 0 Z " fill="#40AB7B" transform="translate(481,465)"/>
<path d="M0 0 C-0.24609375 1.859375 -0.24609375 1.859375 -1 4 C-2.84765625 5.265625 -2.84765625 5.265625 -5.0625 6.25 C-6.16271484 6.75273437 -6.16271484 6.75273437 -7.28515625 7.265625 C-8.13400391 7.62914062 -8.13400391 7.62914062 -9 8 C-9.3125 5.1875 -9.3125 5.1875 -9 2 C-5.88987161 -0.67816611 -3.87309924 -1.57792932 0 0 Z " fill="#46B386" transform="translate(442,488)"/>
<path d="M0 0 C1.12793443 3.33081308 0.87365459 5.21699392 -0.3125 8.5 C-0.57675781 9.2528125 -0.84101563 10.005625 -1.11328125 10.78125 C-1.96902773 12.9225011 -2.93588816 14.9554183 -4 17 C-4 15.68 -4 14.36 -4 13 C-4.66 13 -5.32 13 -6 13 C-3.10933941 3.40546697 -3.10933941 3.40546697 0 0 Z " fill="#1B4A43" transform="translate(386,278)"/>
<path d="M0 0 C5.94 0.33 11.88 0.66 18 1 C14.99559979 3.00293347 13.29006055 3.49271626 9.8125 4.125 C8.91144531 4.29257813 8.01039063 4.46015625 7.08203125 4.6328125 C6.39496094 4.75398437 5.70789063 4.87515625 5 5 C5 4.34 5 3.68 5 3 C4.01 2.67 3.02 2.34 2 2 C1.34 1.34 0.68 0.68 0 0 Z " fill="#0A2322" transform="translate(381,214)"/>
<path d="M0 0 C0.80824219 0.11085937 1.61648438 0.22171875 2.44921875 0.3359375 C3.37154297 0.47902344 3.37154297 0.47902344 4.3125 0.625 C3.6525 1.945 2.9925 3.265 2.3125 4.625 C-0.9875 4.625 -4.2875 4.625 -7.6875 4.625 C-7.6875 3.635 -7.6875 2.645 -7.6875 1.625 C-4.33422361 -0.61051759 -3.78006343 -0.54783528 0 0 Z " fill="#54D895" transform="translate(359.6875,186.375)"/>
<path d="M0 0 C4.74018901 1.83491188 9.36413251 3.91941459 14 6 C14 6.66 14 7.32 14 8 C3.05084746 6.06779661 3.05084746 6.06779661 0 2 C0 1.34 0 0.68 0 0 Z " fill="#398069" transform="translate(318,215)"/>
<path d="M0 0 C0.33 0.66 0.66 1.32 1 2 C3.02463255 2.65213292 3.02463255 2.65213292 5 3 C2.71275884 5.28724116 1.0993963 6.1144582 -2 7 C-4.3125 6.125 -4.3125 6.125 -6 5 C-6 4.34 -6 3.68 -6 3 C-4.02 2.01 -2.04 1.02 0 0 Z " fill="#246051" transform="translate(384,515)"/>
<path d="M0 0 C0.25 2.8125 0.25 2.8125 0 6 C-1.8125 7.875 -1.8125 7.875 -4 9 C-4.99 9 -5.98 9 -7 9 C-4.6 0 -4.6 0 0 0 Z " fill="#51CD93" transform="translate(481,459)"/>
<path d="M0 0 C3.34373475 0.55728913 6.03312999 1.35173889 9 3 C9 3.66 9 4.32 9 5 C6.36 5.33 3.72 5.66 1 6 C0.67 4.02 0.34 2.04 0 0 Z " fill="#58DBA0" transform="translate(456,229)"/>
<path d="M0 0 C3.82669043 3.42388092 5.72278474 6.00724943 7 11 C2.79609368 9.49860488 1.10889262 6.82724957 -1 3 C-0.67 2.01 -0.34 1.02 0 0 Z " fill="#58D99F" transform="translate(311,153)"/>
<path d="M0 0 C0.99 0.33 1.98 0.66 3 1 C3 1.66 3 2.32 3 3 C4.32 2.67 5.64 2.34 7 2 C7 2.99 7 3.98 7 5 C4.69 5.66 2.38 6.32 0 7 C-0.66 5.02 -1.32 3.04 -2 1 C-1.34 0.67 -0.68 0.34 0 0 Z " fill="#41AA7D" transform="translate(466,469)"/>
<path d="M0 0 C0.99 0.33 1.98 0.66 3 1 C2.67 1.53625 2.34 2.0725 2 2.625 C0.77300796 5.5391061 0.85766714 7.86867708 1 11 C0.01 10.67 -0.98 10.34 -2 10 C-3.1875 6.4375 -3.1875 6.4375 -4 3 C-3.01 2.67 -2.02 2.34 -1 2 C-0.67 1.34 -0.34 0.68 0 0 Z " fill="#3F9F77" transform="translate(314,164)"/>
<path d="M0 0 C0.33 0 0.66 0 1 0 C0.65226572 6.63093294 0.03910346 12.053928 -3 18 C-3.33 18 -3.66 18 -4 18 C-3.41632611 11.69632197 -1.95928381 6.01339937 0 0 Z " fill="#24594E" transform="translate(338,282)"/>
<path d="M0 0 C1.93922422 0.45098238 3.87633594 0.91105559 5.8125 1.375 C6.89144531 1.63023437 7.97039062 1.88546875 9.08203125 2.1484375 C12 3 12 3 15 5 C14.01 5.66 13.02 6.32 12 7 C11.67 6.34 11.34 5.68 11 5 C10.01 4.67 9.02 4.34 8 4 C7.67 4.66 7.34 5.32 7 6 C6.34 6 5.68 6 5 6 C5 5.34 5 4.68 5 4 C4.34 4 3.68 4 3 4 C3 3.34 3 2.68 3 2 C2.01 1.67 1.02 1.34 0 1 C0 0.67 0 0.34 0 0 Z " fill="#38986E" transform="translate(354,191)"/>
<path d="M0 0 C3 2 3 2 4 5 C5.40105576 6.42857119 5.40105576 6.42857119 7.0625 7.6875 C8.031875 8.450625 9.00125 9.21375 10 10 C9.67 10.66 9.34 11.32 9 12 C7.56145942 10.73034469 6.12420873 9.45922782 4.6875 8.1875 C3.88699219 7.47980469 3.08648437 6.77210938 2.26171875 6.04296875 C0.45016838 4.40662878 -1.29681703 2.74727832 -3 1 C-2.01 0.67 -1.02 0.34 0 0 Z " fill="#1E4F45" transform="translate(475,398)"/>
<path d="M0 0 C2.25245881 2.68841859 3.88213958 4.64641875 5 8 C3.35 9.32 1.7 10.64 0 12 C0 8.04 0 4.08 0 0 Z " fill="#52B58C" transform="translate(307,145)"/>
<path d="M0 0 C0.33 0.66 0.66 1.32 1 2 C-0.58138636 5.16277272 -3.32596051 5.43093689 -6.5625 6.625 C-7.76003906 7.07101563 -8.95757812 7.51703125 -10.19140625 7.9765625 C-11.11824219 8.31429687 -12.04507812 8.65203125 -13 9 C-13 8.34 -13 7.68 -13 7 C-11.88625 6.54625 -10.7725 6.0925 -9.625 5.625 C-6.03800992 4.27534014 -6.03800992 4.27534014 -4 2 C-2.68252676 1.30251417 -1.35085807 0.63040043 0 0 Z " fill="#164637" transform="translate(474,238)"/>
<path d="M0 0 C2.3431213 0.25561323 4.67843403 0.59270772 7 1 C7.33 1.66 7.66 2.32 8 3 C6.02 5.97 6.02 5.97 4 9 C2.68 8.67 1.36 8.34 0 8 C0.66 7.67 1.32 7.34 2 7 C2.33 6.34 2.66 5.68 3 5 C3.98020375 3.9805881 4.97803008 2.97753644 6 2 C4.35 2 2.7 2 1 2 C0.67 1.34 0.34 0.68 0 0 Z " fill="#4FCB8D" transform="translate(456,202)"/>
<path d="M0 0 C0.66 0.33 1.32 0.66 2 1 C2 2.98 2 4.96 2 7 C2.66 7 3.32 7 4 7 C4 8.98 4 10.96 4 13 C1.59927045 10.11912454 -0.47291037 7.43595166 -2 4 C-1.34 4 -0.68 4 0 4 C0 2.68 0 1.36 0 0 Z " fill="#57DE9F" transform="translate(508,250)"/>
<path d="M0 0 C0.66 0.66 1.32 1.32 2 2 C-1.38772897 6.69159716 -4.78185183 11.0299782 -9 15 C-7.38325319 11.57053707 -5.42402323 8.43736948 -3.375 5.25 C-2.74335938 4.26515625 -2.11171875 3.2803125 -1.4609375 2.265625 C-0.97882813 1.51796875 -0.49671875 0.7703125 0 0 Z " fill="#0A2729" transform="translate(474,526)"/>
<path d="M0 0 C0.66 0.33 1.32 0.66 2 1 C-0.1385485 3.1385485 -1.13275314 3.42655063 -4 4 C-4.33 5.32 -4.66 6.64 -5 8 C-6.98 8.33 -8.96 8.66 -11 9 C-7.56638098 5.36440339 -4.2026393 2.63886654 0 0 Z " fill="#389B6E" transform="translate(464,476)"/>
<path d="M0 0 C2.31 0.33 4.62 0.66 7 1 C7 1.66 7 2.32 7 3 C8.3921875 3.4021875 8.3921875 3.4021875 9.8125 3.8125 C12.76240366 4.91148371 14.05615186 5.62418561 16 8 C10.31497465 6.35433477 5.23318364 3.70967216 0 1 C0 0.67 0 0.34 0 0 Z " fill="#1E4A42" transform="translate(437,381)"/>
<path d="M0 0 C0 2.97 0 5.94 0 9 C-0.33 9 -0.66 9 -1 9 C-1.33 7.35 -1.66 5.7 -2 4 C-3.98 4.99 -5.96 5.98 -8 7 C-6.71942231 3.62393155 -4.03263141 0 0 0 Z " fill="#57DE9F" transform="translate(609,334)"/>
<path d="M0 0 C0.33 0.66 0.66 1.32 1 2 C-2.67387495 2.85298376 -6.0447393 3.10789471 -9.8125 3.0625 C-11.27623047 3.04896484 -11.27623047 3.04896484 -12.76953125 3.03515625 C-13.87361328 3.01775391 -13.87361328 3.01775391 -15 3 C-14.67 2.34 -14.34 1.68 -14 1 C-9.31604754 -0.14242743 -4.78644729 -0.08252495 0 0 Z " fill="#060E11" transform="translate(477,259)"/>
<path d="M0 0 C4.29 0 8.58 0 13 0 C11.35 1.98 9.7 3.96 8 6 C7.67 4.68 7.34 3.36 7 2 C4.69 1.67 2.38 1.34 0 1 C0 0.67 0 0.34 0 0 Z " fill="#0A2724" transform="translate(357,236)"/>
<path d="M0 0 C0 0.66 0 1.32 0 2 C-1.4609375 3.2890625 -1.4609375 3.2890625 -3.375 4.625 C-4.00148438 5.07101562 -4.62796875 5.51703125 -5.2734375 5.9765625 C-7 7 -7 7 -9 7 C-8.3125 4.625 -8.3125 4.625 -7 2 C-4.52858057 0.7025048 -2.79207427 0 0 0 Z " fill="#08211D" transform="translate(466,468)"/>
<path d="M0 0 C0.66 0.33 1.32 0.66 2 1 C1.2575 1.6496875 1.2575 1.6496875 0.5 2.3125 C-1.33218192 3.99740483 -1.33218192 3.99740483 -1 7 C-3 8.6875 -3 8.6875 -5 10 C-5.3125 7.25 -5.3125 7.25 -5 4 C-2.5 1.625 -2.5 1.625 0 0 Z " fill="#41AD7C" transform="translate(505,447)"/>
<path d="M0 0 C0.33 0 0.66 0 1 0 C1 2.97 1 5.94 1 9 C0.01 9.33 -0.98 9.66 -2 10 C-2.66 9.34 -3.32 8.68 -4 8 C-2.68 5.36 -1.36 2.72 0 0 Z " fill="#194C41" transform="translate(416,306)"/>
<path d="M0 0 C0.66 0.33 1.32 0.66 2 1 C1.3125 3.4375 1.3125 3.4375 0 6 C-2.625 6.8125 -2.625 6.8125 -5 7 C-3.70700306 4.11562221 -2.34058637 2.12780579 0 0 Z M-7 7 C-5 8 -5 8 -5 8 Z " fill="#46BD82" transform="translate(528,426)"/>
<path d="M0 0 C0.66 0.33 1.32 0.66 2 1 C1.67 1.66 1.34 2.32 1 3 C0.34 3 -0.32 3 -1 3 C-1.2475 3.556875 -1.495 4.11375 -1.75 4.6875 C-3.21606015 7.39971127 -5.02989471 9.63587365 -7 12 C-6.67 10.02 -6.34 8.04 -6 6 C-5.34 6 -4.68 6 -4 6 C-3.34 4.68 -2.68 3.36 -2 2 C-1.34 2 -0.68 2 0 2 C0 1.34 0 0.68 0 0 Z " fill="#194F3F" transform="translate(433,265)"/>
<path d="M0 0 C2 3 2 3 1.8125 5.125 C1.544375 5.74375 1.27625 6.3625 1 7 C0.01 7.33 -0.98 7.66 -2 8 C-2.125 5.125 -2.125 5.125 -2 2 C-1.34 1.34 -0.68 0.68 0 0 Z " fill="#4DC98F" transform="translate(502,443)"/>
<path d="M0 0 C0 0.99 0 1.98 0 3 C-3.47823115 4.15941038 -5.45895578 3.70820884 -9 3 C-5.92807025 0.26939578 -4.09590633 -0.34132553 0 0 Z " fill="#54CF97" transform="translate(563,367)"/>
<path d="M0 0 C1.0828125 0.37125 1.0828125 0.37125 2.1875 0.75 C-3.8125 4.75 -3.8125 4.75 -6 4.375 C-6.598125 4.16875 -7.19625 3.9625 -7.8125 3.75 C-3.50480769 -0.31153846 -3.50480769 -0.31153846 0 0 Z " fill="#0C2622" transform="translate(453.8125,266.25)"/>
<path d="M0 0 C0.66 0.33 1.32 0.66 2 1 C1.01 1.99 0.02 2.98 -1 4 C-1.66 3.34 -2.32 2.68 -3 2 C-2.01 1.34 -1.02 0.68 0 0 Z M-2 4 C-1.67 4.66 -1.34 5.32 -1 6 C-0.01 6.33 0.98 6.66 2 7 C0.35 7.66 -1.3 8.32 -3 9 C-3.33 8.01 -3.66 7.02 -4 6 C-3.34 5.34 -2.68 4.68 -2 4 Z " fill="#3EA079" transform="translate(449,480)"/>
<path d="M0 0 C3.39914975 1.13304992 4.05254451 2.12518475 6 5 C4.35 5.33 2.7 5.66 1 6 C0.34 4.35 -0.32 2.7 -1 1 C-0.67 0.67 -0.34 0.34 0 0 Z " fill="#50CC90" transform="translate(487,233)"/>
<path d="M0 0 C2.31 1.65 4.62 3.3 7 5 C5.125 6.0625 5.125 6.0625 3 7 C2.34 6.67 1.68 6.34 1 6 C0.375 2.9375 0.375 2.9375 0 0 Z " fill="#37986E" transform="translate(325,174)"/>
<path d="M0 0 C1.44977894 2.34112451 2.04314411 3.5796929 1.7578125 6.359375 C1.54898437 7.14828125 1.34015625 7.9371875 1.125 8.75 C0.92132813 9.54921875 0.71765625 10.3484375 0.5078125 11.171875 C0.34023438 11.77515625 0.17265625 12.3784375 0 13 C-0.33 13 -0.66 13 -1 13 C-1.07654536 8.48382401 -1.10228696 4.40914783 0 0 Z " fill="#1D5046" transform="translate(333,300)"/>
<path d="M0 0 C0.99 0.66 1.98 1.32 3 2 C2.34 2 1.68 2 1 2 C1.33 2.99 1.66 3.98 2 5 C1.34 5 0.68 5 0 5 C-0.33 5.99 -0.66 6.98 -1 8 C-1.66 7.67 -2.32 7.34 -3 7 C-1.125 2.25 -1.125 2.25 0 0 Z " fill="#296857" transform="translate(346,264)"/>
<path d="M0 0 C0 1.32 0 2.64 0 4 C-1.8125 4.625 -1.8125 4.625 -4 5 C-4.99 4.34 -5.98 3.68 -7 3 C-2.25 0 -2.25 0 0 0 Z " fill="#47B382" transform="translate(464,246)"/>
<path d="M0 0 C0.33 1.32 0.66 2.64 1 4 C0.01 4.33 -0.98 4.66 -2 5 C-2 4.34 -2 3.68 -2 3 C-3.65 3.66 -5.3 4.32 -7 5 C-7.33 4.34 -7.66 3.68 -8 3 C-3.375 0 -3.375 0 0 0 Z " fill="#47B781" transform="translate(488,229)"/>
<path d="M0 0 C1.98 0 3.96 0 6 0 C7.0625 1.875 7.0625 1.875 8 4 C7.67 4.66 7.34 5.32 7 6 C5 5 5 5 4 3 C3.01 3 2.02 3 1 3 C0.67 2.01 0.34 1.02 0 0 Z " fill="#46BC81" transform="translate(441,205)"/>
<path d="M0 0 C0 0.66 0 1.32 0 2 C0.66 2.33 1.32 2.66 2 3 C-4.15234375 2.4140625 -4.15234375 2.4140625 -6 2 C-6.33 1.34 -6.66 0.68 -7 0 C-4.3333581 -1.33332095 -2.83319697 -0.67102033 0 0 Z " fill="#0E2E21" transform="translate(370,186)"/>
<path d="M0 0 C0.66 0.33 1.32 0.66 2 1 C-1.625 6.75 -1.625 6.75 -5 9 C-4.67 7.68 -4.34 6.36 -4 5 C-3.34 5 -2.68 5 -2 5 C-1.7834375 4.0409375 -1.7834375 4.0409375 -1.5625 3.0625 C-1 1 -1 1 0 0 Z " fill="#0F2328" transform="translate(511,558)"/>
<path d="M0 0 C1.32 0.33 2.64 0.66 4 1 C3.01 1.495 3.01 1.495 2 2 C1.3162955 3.32467746 0.65035814 4.65863633 0 6 C-0.66 6.66 -1.32 7.32 -2 8 C-2 6.68 -2 5.36 -2 4 C-1.34 4 -0.68 4 0 4 C0 2.68 0 1.36 0 0 Z " fill="#123735" transform="translate(473,538)"/>
<path d="M0 0 C0.33 0 0.66 0 1 0 C1.17942163 3.94727588 1.09350689 6.5980513 -1 10 C-1.66 10 -2.32 10 -3 10 C-2.01 6.7 -1.02 3.4 0 0 Z " fill="#235A4D" transform="translate(342,271)"/>
<path d="M0 0 C0.99 0 1.98 0 3 0 C3.33 0.99 3.66 1.98 4 3 C3.67 3.33 3.34 3.66 3 4 C3.66 4.66 4.32 5.32 5 6 C3.68 6 2.36 6 1 6 C0.67 4.02 0.34 2.04 0 0 Z " fill="#56D199" transform="translate(456,229)"/>
<path d="M0 0 C1.65 0.33 3.3 0.66 5 1 C4.2884375 1.680625 4.2884375 1.680625 3.5625 2.375 C1.90972192 3.93258204 1.90972192 3.93258204 1 6 C-0.32 5.34 -1.64 4.68 -3 4 C-2.34 4 -1.68 4 -1 4 C-0.67 2.68 -0.34 1.36 0 0 Z " fill="#4CC389" transform="translate(343,180)"/>
<path d="M0 0 C2.29633824 3.44450737 2.54016485 5.93812283 3 10 C2.34 9.67 1.68 9.34 1 9 C0.5859375 6.93359375 0.5859375 6.93359375 0.375 4.4375 C0.30023438 3.61121094 0.22546875 2.78492188 0.1484375 1.93359375 C0.09945313 1.29550781 0.05046875 0.65742188 0 0 Z " fill="#1C4A41" transform="translate(341,375)"/>
<path d="M0 0 C0.33 0.66 0.66 1.32 1 2 C0.3125 4.0625 0.3125 4.0625 -1 6 C-3.125 6.75 -3.125 6.75 -5 7 C-3.47793991 4.37098712 -2.15634036 2.15634036 0 0 Z " fill="#0B2426" transform="translate(369,256)"/>
<path d="M0 0 C0.33 0.66 0.66 1.32 1 2 C-0.98 2.99 -2.96 3.98 -5 5 C-5 4.34 -5 3.68 -5 3 C-5.99 2.67 -6.98 2.34 -8 2 C-5.36 1.34 -2.72 0.68 0 0 Z " fill="#266951" transform="translate(465,233)"/>
<path d="M0 0 C-1.0625 1.5 -1.0625 1.5 -3 3 C-6.6875 3.1875 -6.6875 3.1875 -10 3 C-8.0130571 -0.97388579 -3.91761109 -0.08705802 0 0 Z " fill="#338067" transform="translate(398,217)"/>
</svg>
